<?xml version="1.0" standalone="no"?>
<!DOCTYPE svg PUBLIC "-//W3C//DTD SVG 20010904//EN"
 "http://www.w3.org/TR/2001/REC-SVG-20010904/DTD/svg10.dtd">
<svg version="1.0" xmlns="http://www.w3.org/2000/svg"
 width="1280.000000pt" height="640.000000pt" viewBox="0 0 1280.000000 640.000000"
 preserveAspectRatio="xMidYMid meet">
<g transform="translate(0.000000,640.000000) scale(0.100000,-0.100000)"
fill="#000000" stroke="none">
<path d="M6302 4683 c-1 -17 -9 -39 -18 -47 -11 -11 -14 -25 -9 -46 6 -28 4
-30 -20 -30 -26 0 -27 -2 -20 -32 4 -18 7 -44 6 -57 -1 -14 5 -28 11 -33 10
-6 10 -10 -1 -17 -8 -5 -12 -19 -9 -35 7 -36 -9 -43 -37 -16 l-23 22 0 -46 c1
-26 5 -49 10 -52 12 -8 10 -48 -4 -62 -9 -9 -4 -14 20 -23 18 -6 32 -17 32
-24 0 -13 23 -27 56 -34 4 0 1 -8 -6 -16 -16 -19 -44 -19 -61 1 -8 9 -21 13
-35 10 -17 -5 -26 -1 -34 14 -12 23 -30 27 -30 6 0 -8 -9 -18 -20 -21 -11 -3
-20 -11 -20 -16 0 -5 9 -14 20 -21 11 -7 20 -17 20 -22 0 -11 48 -56 60 -56 4
0 10 -6 13 -12 3 -10 13 -9 40 4 43 21 47 11 11 -31 -24 -29 -26 -30 -50 -15
-13 9 -24 12 -24 6 0 -5 -16 -13 -35 -16 -19 -4 -37 -11 -40 -16 -8 -12 17
-60 44 -84 28 -25 27 -36 -4 -36 -22 0 -25 -3 -19 -24 5 -21 1 -24 -30 -30
-48 -9 -46 -27 9 -81 25 -25 54 -63 65 -85 l20 -39 -24 -17 c-17 -11 -30 -13
-42 -6 -17 10 -64 -6 -64 -21 0 -19 35 -83 54 -98 27 -22 12 -42 -25 -34 -21
5 -31 2 -35 -9 -6 -16 5 -36 46 -86 l20 -25 20 25 20 25 -6 -35 c-9 -56 -12
-60 -56 -80 -24 -10 -54 -28 -67 -40 -21 -18 -22 -22 -9 -38 9 -9 18 -26 22
-38 3 -11 22 -26 42 -33 30 -11 40 -10 70 4 20 9 39 14 42 10 8 -8 -48 -55
-65 -55 -15 0 -17 -16 -3 -25 6 -3 10 -12 10 -19 0 -9 -26 -17 -76 -24 -83
-11 -104 -23 -85 -45 6 -8 9 -21 6 -30 -7 -16 33 -49 75 -62 14 -4 27 -10 30
-14 3 -3 22 -14 43 -23 20 -10 37 -22 37 -28 0 -5 -18 -19 -39 -30 -30 -15
-53 -19 -100 -16 -65 4 -65 4 -52 -22 5 -9 15 -30 22 -46 8 -15 23 -32 34 -36
21 -8 65 -54 65 -69 0 -20 -48 -39 -99 -38 -40 1 -55 -3 -63 -16 -5 -9 -16
-17 -23 -17 -20 0 -19 -19 0 -26 9 -4 15 -19 15 -36 0 -40 17 -68 40 -68 11 0
20 -4 20 -10 0 -5 18 -10 40 -10 22 0 40 -5 40 -10 0 -17 -27 -23 -48 -11 -16
8 -28 7 -51 -7 -33 -18 -37 -27 -21 -37 6 -3 10 -15 10 -26 0 -12 14 -28 35
-40 44 -26 37 -39 -21 -39 -37 0 -44 -3 -44 -20 0 -10 -7 -23 -16 -28 -20 -11
-9 -36 12 -28 8 3 14 -1 14 -9 0 -25 40 -57 74 -60 48 -4 40 -30 -9 -30 -43 0
-102 -36 -90 -54 3 -6 0 -19 -6 -29 -9 -15 -7 -23 12 -44 13 -14 37 -28 52
-32 19 -4 27 -12 24 -21 -8 -18 15 -65 31 -65 6 0 12 -9 12 -20 0 -11 6 -21
13 -21 46 -5 69 -4 74 4 2 4 11 3 18 -3 11 -9 22 -5 50 17 19 15 35 34 35 41
0 6 4 12 10 12 5 0 16 14 25 30 27 53 39 37 32 -44 -10 -118 29 -106 -354
-106 -302 0 -335 2 -329 16 3 9 6 17 6 18 0 2 11 1 25 -2 15 -2 25 0 25 7 0 6
7 11 16 11 31 0 3 18 -39 25 -23 4 -52 11 -65 16 -21 8 -22 11 -8 24 8 8 17
15 20 15 11 0 44 38 51 59 3 12 12 21 20 21 7 0 15 9 18 21 4 15 0 23 -14 26
-28 8 -23 19 14 34 l32 13 -30 4 c-16 2 -33 9 -37 15 -5 8 -17 6 -43 -6 -52
-25 -79 -21 -156 19 -65 34 -92 62 -49 51 10 -3 21 0 22 5 3 7 12 7 27 -2 14
-7 26 -8 30 -3 10 15 47 21 65 11 13 -7 15 -5 13 14 -2 21 4 24 56 32 42 7 56
13 53 23 -4 9 3 13 19 13 14 0 25 3 25 8 0 19 -43 42 -78 42 -21 0 -43 5 -50
12 -7 7 -31 11 -55 9 -53 -3 -177 43 -177 66 0 12 7 14 28 9 15 -4 59 -9 99
-13 67 -5 74 -4 103 20 17 15 49 32 71 39 36 10 40 14 34 36 -3 13 -1 30 6 38
9 12 4 14 -32 14 -24 0 -53 7 -63 15 -11 8 -34 15 -50 15 -17 0 -37 4 -45 9
-20 13 -4 31 26 31 17 0 42 16 74 48 27 26 49 51 49 56 0 4 -15 5 -34 2 -19
-4 -37 -2 -40 3 -3 5 -23 7 -45 4 -45 -6 -114 13 -108 30 2 7 21 11 43 10 50
-4 92 34 92 82 l0 32 -49 -14 c-36 -11 -53 -11 -69 -3 -25 13 -26 30 -1 30 10
0 21 8 24 18 2 9 8 25 12 35 7 17 4 18 -36 12 -24 -3 -62 -2 -83 2 -51 11 -60
33 -14 33 42 0 60 12 52 33 -4 12 -1 17 11 17 9 0 34 17 56 37 l39 38 -22 17
c-13 10 -34 18 -47 18 -13 0 -29 8 -36 17 -11 15 -17 15 -39 5 -34 -15 -78
-15 -111 0 -36 16 -32 38 8 39 60 3 65 4 73 12 4 4 20 7 35 7 21 0 30 8 43 34
9 19 23 36 31 40 25 9 17 31 -17 48 -23 10 -40 13 -56 7 -27 -10 -42 -4 -42
15 0 10 -8 11 -39 3 -34 -9 -45 -7 -87 14 -68 35 -68 50 -2 45 29 -3 61 -8 71
-11 18 -8 57 26 70 59 4 9 12 16 19 16 18 1 62 39 55 47 -4 3 -21 7 -39 8 -18
2 -41 6 -50 10 -9 4 -27 -1 -42 -10 -23 -15 -27 -15 -68 3 -24 10 -50 27 -58
37 -14 17 -13 18 15 11 17 -4 38 -9 48 -12 11 -4 17 0 17 11 0 13 6 15 30 10
19 -4 30 -3 30 4 0 6 5 11 11 11 11 0 79 52 79 61 0 12 -53 29 -72 23 -12 -3
-35 2 -54 12 -28 15 -38 16 -54 6 -32 -20 -70 -15 -70 8 0 13 -7 20 -20 20
-20 0 -26 11 -13 23 3 4 13 1 21 -5 11 -10 17 -8 28 7 14 18 14 18 28 0 9 -13
19 -16 32 -10 10 4 30 9 43 11 38 5 47 21 26 44 -10 11 -24 20 -31 20 -8 0
-19 9 -26 20 -7 11 -21 20 -30 20 -22 0 -23 13 -2 31 14 11 12 14 -13 28 -26
14 -27 16 -7 19 12 2 29 11 39 22 14 15 14 21 4 38 -11 17 -10 24 2 38 11 13
11 18 2 21 -7 3 -13 16 -13 31 0 20 -3 23 -12 14 -7 -7 -22 -12 -34 -12 -16 0
-26 -10 -37 -37 -16 -40 -53 -81 -63 -70 -10 9 -17 94 -10 113 5 12 10 13 19
6 7 -6 23 -9 35 -5 23 6 30 27 12 38 -17 10 -11 25 10 25 21 0 27 14 11 24 -5
3 -7 16 -4 27 5 18 3 20 -13 11 -10 -5 -24 -8 -30 -5 -6 2 -16 -8 -22 -22 -16
-34 -35 -23 -21 12 5 14 17 39 26 54 18 31 12 49 -11 30 -11 -9 -15 -5 -20 24
-9 46 -26 35 -26 -16 0 -40 -7 -48 -28 -27 -19 19 -15 -6 9 -52 13 -25 18 -47
13 -58 -6 -13 -9 -9 -17 21 -10 36 -20 46 -31 28 -3 -5 -15 -7 -26 -4 -24 6
-25 -5 -4 -35 9 -13 13 -31 9 -42 -4 -13 -1 -22 9 -26 22 -8 20 -26 -1 -22
-18 3 -20 -4 -8 -33 10 -25 -20 -30 -48 -8 -14 10 -30 19 -36 19 -16 0 -6 -66
13 -85 20 -21 20 -31 0 -39 -25 -10 -11 -28 23 -32 18 -2 43 -15 58 -28 17
-16 33 -22 47 -18 15 3 19 1 16 -9 -7 -21 -69 -23 -106 -3 -28 15 -35 16 -42
4 -7 -12 -14 -11 -39 8 -35 26 -47 27 -55 7 -3 -8 -15 -15 -26 -15 -32 0 -24
-30 11 -37 20 -4 28 -10 25 -19 -3 -9 2 -14 13 -14 10 0 24 -7 32 -16 7 -8 21
-13 31 -11 11 3 18 0 18 -9 0 -18 24 -18 79 2 24 8 46 13 48 10 6 -6 -77 -66
-92 -66 -6 0 -16 5 -22 11 -10 10 -88 1 -140 -16 -21 -7 -2 -42 37 -66 47 -29
49 -37 13 -41 -21 -2 -28 -8 -28 -25 0 -23 -7 -25 -34 -15 -8 3 -17 0 -19 -6
-2 -7 -15 -12 -30 -12 -25 0 -25 -1 14 -35 21 -20 51 -38 66 -42 25 -5 88 -71
88 -92 0 -14 -62 -24 -98 -16 -18 3 -33 2 -37 -4 -3 -6 -15 -11 -26 -11 -10 0
-19 -4 -19 -9 0 -13 60 -75 85 -89 25 -13 14 -25 -22 -23 -52 4 -74 3 -79 -2
-8 -8 27 -57 41 -57 6 0 20 -9 30 -20 22 -24 38 -25 55 -5 7 8 20 15 29 15 13
0 13 -2 2 -9 -8 -5 -11 -16 -8 -25 9 -22 -41 -52 -98 -61 -24 -3 -49 -13 -55
-20 -7 -8 -21 -15 -31 -15 -24 0 -24 -15 -1 -32 10 -7 21 -20 24 -28 7 -19
124 -45 141 -32 7 5 29 13 51 16 54 10 43 -12 -19 -36 -62 -24 -64 -27 -40
-40 19 -11 19 -11 0 -19 -11 -4 -45 -8 -75 -9 -66 -1 -147 -14 -158 -24 -4 -4
1 -12 11 -18 14 -7 16 -13 7 -24 -10 -11 -6 -16 16 -25 16 -6 38 -16 49 -21
11 -5 34 -10 50 -11 17 -1 32 -5 35 -8 3 -3 31 -13 63 -23 31 -10 55 -22 52
-26 -14 -23 -104 -40 -198 -36 -91 3 -97 2 -82 -14 8 -9 15 -20 15 -24 0 -15
54 -56 75 -56 12 0 34 -9 48 -20 14 -11 30 -20 37 -20 27 0 0 -26 -42 -42 -37
-14 -53 -15 -82 -6 -20 6 -36 15 -36 20 0 5 -19 8 -42 6 -43 -3 -46 0 -33 35
6 14 1 17 -26 18 -39 1 -95 16 -67 18 18 1 110 66 116 82 2 5 -10 12 -27 15
-17 4 -34 10 -36 15 -3 4 -29 5 -58 2 -39 -4 -56 -2 -65 9 -10 13 -4 16 45 21
48 5 62 11 80 34 28 35 25 47 -13 51 -16 2 -36 5 -44 8 -8 3 -34 7 -58 8 -26
1 -49 9 -60 20 -16 18 -15 18 34 13 44 -5 55 -3 70 15 11 11 29 24 42 29 51
20 15 36 -67 30 -41 -3 -81 6 -81 18 0 5 21 12 48 16 84 12 135 59 66 61 -16
0 -39 6 -51 12 -17 9 -28 9 -48 0 -21 -10 -28 -9 -35 2 -12 20 8 42 29 31 17
-9 81 5 81 17 0 4 -18 18 -39 31 -24 14 -37 29 -34 37 3 8 0 14 -6 14 -19 0
-12 17 9 23 20 5 21 20 4 75 -7 23 -39 12 -67 -23 -32 -40 -47 -38 -47 5 0 24
5 29 28 32 17 2 26 8 24 17 -2 8 1 17 6 20 5 3 6 14 3 23 -6 16 -9 16 -34 3
-29 -15 -34 -7 -17 25 8 15 6 24 -10 40 -20 20 -20 20 -20 0 0 -12 -7 -20 -16
-20 -10 0 -14 -5 -10 -15 8 -20 14 -42 9 -32 -3 4 -16 7 -30 7 -21 0 -23 -3
-17 -22 8 -26 8 -77 0 -86 -3 -3 -17 0 -31 6 -23 11 -25 9 -25 -12 0 -12 3
-26 7 -30 4 -4 8 -15 8 -24 0 -9 9 -18 19 -20 10 -2 33 -13 50 -24 l31 -19
-65 6 c-36 4 -71 11 -79 15 -15 8 -61 -7 -61 -20 0 -4 8 -10 18 -14 9 -3 33
-15 52 -26 26 -16 45 -20 73 -15 20 3 37 1 37 -3 0 -15 -45 -30 -61 -22 -20
11 -109 -9 -109 -24 0 -7 11 -18 24 -25 l24 -13 -21 -21 c-12 -12 -29 -22 -39
-22 -44 -4 -28 -37 27 -55 18 -6 41 -22 49 -35 16 -24 15 -25 -9 -31 -14 -3
-32 -4 -40 0 -8 3 -28 1 -43 -5 l-27 -10 33 -30 c38 -34 40 -41 10 -39 -59 5
-64 -9 -14 -38 20 -12 44 -18 55 -15 12 3 21 1 21 -6 0 -15 -54 -41 -84 -41
-14 0 -27 -4 -30 -8 -8 -13 -159 -7 -184 7 -30 16 -19 32 17 25 22 -5 32 0 48
19 16 21 26 76 12 70 -2 0 -21 -4 -41 -8 -44 -8 -69 2 -46 19 8 6 18 21 22 34
7 20 4 22 -31 22 -47 0 -83 9 -83 21 0 5 11 9 25 9 15 0 28 7 32 17 3 9 24 32
46 52 l39 35 -22 18 c-12 10 -30 18 -40 18 -10 0 -20 6 -22 12 -4 10 -10 10
-33 0 -21 -10 -35 -10 -61 -2 -41 14 -46 40 -6 40 76 0 97 10 122 57 20 37 21
46 9 54 -16 10 -26 12 -56 9 -13 -1 -23 4 -23 10 0 8 -10 9 -29 5 -30 -6 -111
26 -111 44 0 5 26 7 58 5 55 -5 58 -4 75 26 10 16 24 30 30 30 7 0 18 9 25 20
11 17 9 20 -16 26 -15 3 -34 8 -44 10 -9 3 -19 0 -23 -6 -11 -18 -53 -11 -82
16 l-28 25 38 -6 c25 -4 37 -2 37 6 0 6 8 9 20 6 12 -3 32 7 57 29 32 28 36
35 23 44 -8 6 -27 9 -43 7 -15 -2 -32 2 -38 10 -13 15 -45 17 -54 3 -11 -17
-37 -11 -42 10 -3 11 -12 20 -19 20 -8 0 -14 5 -14 11 0 6 8 8 19 4 11 -3 22
-1 26 5 5 8 13 6 25 -5 12 -11 20 -13 25 -6 3 6 15 11 25 11 35 0 33 21 -5 56
-21 19 -42 34 -47 34 -6 0 -4 7 3 16 11 13 10 18 -5 26 -17 10 -16 12 10 34
23 18 26 25 15 32 -9 7 -10 15 -4 28 13 26 -6 60 -32 56 -13 -2 -28 -19 -40
-44 -27 -55 -42 -58 -50 -9 -7 43 -1 62 18 60 30 -4 39 2 34 20 -3 11 1 22 8
25 17 6 7 56 -11 56 -7 0 -22 -10 -34 -22 -19 -21 -20 -21 -20 -2 1 10 7 30
15 44 19 32 19 44 0 36 -10 -3 -15 1 -15 14 0 10 -4 22 -10 25 -6 4 -10 -7
-10 -24 0 -22 -5 -31 -16 -31 -11 0 -14 -5 -9 -17 3 -10 8 -29 9 -43 2 -14 1
-17 -1 -7 -3 10 -14 17 -29 17 -23 0 -24 -2 -18 -42 4 -24 12 -46 18 -50 8 -5
7 -8 -1 -8 -7 0 -13 -12 -13 -26 0 -27 -7 -28 -52 -9 -13 5 -16 2 -14 -17 1
-12 8 -34 15 -47 10 -19 10 -25 1 -31 -17 -10 -3 -30 21 -30 10 0 28 -9 39
-20 12 -12 26 -17 36 -13 12 4 15 2 12 -8 -6 -19 -46 -24 -74 -9 -12 7 -29 10
-37 7 -8 -3 -24 1 -36 9 -18 13 -23 13 -46 -2 -28 -18 -33 -34 -10 -34 7 0 18
-6 22 -13 4 -6 22 -19 38 -27 17 -8 33 -19 37 -24 4 -6 21 -5 44 2 47 14 57 6
24 -20 -15 -12 -33 -18 -50 -15 -36 8 -120 -12 -120 -28 0 -7 13 -25 30 -38
35 -30 37 -37 10 -37 -13 0 -20 -7 -20 -20 0 -12 -6 -20 -12 -19 -7 1 -23 -2
-36 -7 l-23 -10 27 -27 c15 -15 37 -30 48 -33 12 -3 31 -20 43 -39 21 -32 22
-35 5 -44 -10 -5 -39 -9 -65 -9 -26 1 -50 -2 -53 -5 -8 -8 24 -58 48 -75 30
-21 22 -35 -16 -28 -57 11 -59 -22 -4 -61 24 -17 36 -20 50 -12 15 8 18 6 18
-10 0 -23 -31 -46 -75 -55 -16 -4 -41 -15 -54 -25 l-24 -18 24 -26 c29 -30 94
-53 112 -39 7 5 24 12 40 16 42 10 33 -12 -13 -30 -38 -15 -54 -34 -28 -34 8
0 9 -3 2 -10 -5 -5 -44 -13 -86 -16 -84 -7 -112 -18 -89 -33 7 -5 11 -14 7
-19 -9 -14 31 -34 122 -61 39 -12 72 -26 72 -32 0 -21 -66 -38 -138 -35 -69 2
-70 2 -60 -18 17 -34 40 -56 57 -56 14 -1 71 -43 71 -53 0 -12 -62 -26 -115
-25 -36 1 -61 -4 -63 -11 -2 -6 -12 -11 -23 -11 -22 0 -26 -15 -5 -23 7 -3 16
-19 19 -36 5 -25 13 -33 37 -37 36 -8 39 -29 5 -38 -24 -6 -36 -26 -15 -26 6
0 10 -7 10 -15 0 -8 17 -23 38 -34 l37 -20 -42 -1 c-51 0 -73 -8 -73 -26 0 -8
-7 -14 -15 -14 -8 0 -15 -4 -15 -10 0 -5 11 -10 25 -10 16 0 25 -6 25 -15 0
-8 6 -15 14 -15 8 0 16 -5 18 -11 2 -6 20 -11 41 -11 20 0 37 -4 37 -8 0 -12
-22 -18 -60 -15 -44 4 -65 -7 -82 -42 -12 -25 -11 -30 3 -44 9 -10 30 -20 46
-23 19 -4 33 -17 42 -36 7 -17 19 -30 27 -30 8 0 14 -4 14 -10 0 -6 -68 -10
-185 -10 -117 0 -185 4 -185 10 0 6 11 10 24 10 13 0 29 6 35 14 10 12 3 16
-43 26 -64 13 -76 24 -44 41 28 14 88 76 88 91 0 6 -8 17 -17 24 -16 11 -16
13 10 19 15 4 27 11 27 15 0 5 -9 6 -21 3 -12 -3 -24 0 -29 6 -6 10 -17 9 -53
-3 -39 -13 -52 -13 -89 -2 -54 16 -118 47 -118 57 0 11 54 18 66 8 7 -6 22 -4
39 5 21 11 33 12 48 4 17 -9 19 -8 14 6 -8 21 21 36 72 36 30 0 41 4 41 15 0
9 9 15 22 15 20 0 21 1 3 20 -13 14 -31 20 -61 20 -24 0 -46 5 -50 11 -4 7
-20 8 -41 4 -19 -3 -51 -1 -71 5 -74 23 -122 43 -122 50 0 4 47 5 105 2 81 -4
108 -2 121 9 9 8 37 21 63 30 33 11 46 21 46 35 1 10 4 24 8 31 5 7 -7 13 -36
16 -71 9 -158 31 -160 42 -1 6 13 11 31 13 22 2 47 17 80 49 l47 45 -37 -5
c-21 -3 -40 -1 -43 4 -4 5 -23 7 -43 4 -44 -7 -94 6 -100 25 -4 10 4 12 31 7
51 -8 97 25 97 71 0 25 -9 27 -60 12 -36 -10 -70 -5 -70 11 0 5 6 9 14 9 7 0
16 8 20 18 3 9 9 22 12 29 4 9 -16 13 -72 15 -56 2 -79 7 -82 17 -3 10 0 12
12 8 25 -10 67 9 60 28 -4 10 0 15 11 15 9 0 35 14 56 31 37 29 38 32 22 45
-10 7 -31 14 -47 14 -16 0 -34 7 -41 16 -9 13 -16 14 -33 5 -27 -14 -84 -14
-117 1 -33 15 -32 28 3 30 97 5 134 18 170 59 18 20 32 39 32 42 0 12 -62 28
-88 22 -21 -4 -31 -2 -35 9 -4 11 -16 13 -46 9 -27 -4 -57 0 -86 11 -73 29
-67 39 18 34 74 -5 78 -4 104 23 16 16 33 29 38 29 15 1 59 40 52 46 -3 3 -23
6 -44 7 -21 0 -41 5 -44 9 -3 5 -20 1 -37 -9 -29 -17 -32 -17 -78 2 -60 25
-71 47 -17 34 27 -6 41 -5 48 4 6 7 25 12 43 13 18 1 43 10 55 23 13 11 29 21
35 21 7 0 12 5 12 10 0 15 -49 32 -72 24 -11 -3 -35 2 -53 11 -26 12 -40 13
-54 5 -27 -14 -58 -13 -68 3 -4 8 -16 17 -26 20 -10 4 -15 12 -12 17 5 8 11 8
20 0 10 -8 19 -8 33 1 15 10 24 10 34 2 16 -14 108 3 108 19 0 15 -31 37 -51
38 -9 0 -19 7 -23 15 -3 8 -12 15 -21 15 -18 0 -19 12 -3 28 10 10 8 14 -10
18 -24 7 -30 24 -9 24 7 0 22 6 32 14 16 12 17 16 6 30 -11 13 -11 19 0 32 10
13 10 17 -1 24 -7 4 -10 15 -6 25 5 14 2 16 -11 10 -10 -4 -27 -8 -38 -10 -11
-1 -25 -13 -32 -26 -14 -28 -61 -75 -68 -67 -3 2 -6 27 -7 54 l-3 49 39 -3
c37 -4 38 -3 32 22 -5 20 -3 26 10 26 11 0 14 5 10 16 -3 9 -6 21 -6 28 0 20
-52 7 -72 -18 l-18 -21 0 21 c0 12 9 33 20 47 30 37 23 66 -8 35 -9 -9 -12 -6
-12 14 0 41 -18 43 -26 3 -5 -29 -10 -35 -25 -30 -24 8 -24 3 1 -37 21 -35 26
-58 11 -58 -5 0 -12 11 -15 24 -5 20 -11 23 -38 20 -18 -1 -34 -3 -36 -3 -1
-1 4 -12 13 -25 8 -13 13 -31 9 -40 -4 -11 -1 -16 10 -16 9 0 16 -4 16 -10 0
-5 -7 -10 -16 -10 -11 0 -14 -6 -9 -20 9 -28 -19 -36 -50 -16 -13 9 -29 16
-35 16 -14 0 -2 -50 19 -73 14 -17 14 -20 -2 -32 -21 -15 -15 -21 36 -30 20
-4 37 -11 37 -16 0 -5 18 -12 41 -15 60 -10 32 -27 -33 -20 -29 3 -66 6 -83 6
-16 0 -40 7 -53 16 -21 14 -25 14 -41 0 -10 -9 -25 -16 -34 -16 -29 0 -19 -20
13 -26 17 -4 30 -13 30 -20 0 -8 9 -14 19 -14 11 0 23 -4 26 -10 3 -5 15 -10
26 -10 10 0 19 -4 19 -10 0 -13 36 -13 61 1 11 5 30 9 42 7 19 -3 17 -6 -17
-27 -34 -21 -43 -23 -69 -13 -16 6 -35 8 -41 4 -6 -4 -20 -7 -31 -8 -68 -2
-75 -4 -75 -22 0 -11 16 -27 40 -41 47 -26 51 -37 13 -36 -24 0 -27 -4 -25
-24 3 -19 0 -22 -13 -17 -20 7 -85 -3 -85 -13 0 -11 82 -61 100 -61 9 0 32
-16 50 -35 29 -30 32 -38 20 -46 -8 -5 -39 -8 -67 -6 -29 2 -53 0 -53 -5 0 -4
-11 -8 -25 -8 -14 0 -25 -4 -25 -8 0 -12 54 -62 67 -62 6 0 16 -6 22 -14 15
-18 -10 -29 -42 -17 -12 5 -32 5 -45 0 -21 -8 -22 -9 -5 -29 10 -11 23 -20 29
-20 6 0 17 -7 24 -15 14 -17 56 -20 65 -5 10 17 21 11 21 -11 0 -29 -33 -48
-95 -56 -28 -3 -56 -12 -62 -19 -6 -8 -20 -14 -30 -14 -11 0 -19 -4 -19 -10 0
-5 4 -10 10 -10 5 0 19 -10 30 -22 12 -13 31 -25 43 -27 43 -6 103 -6 145 2
53 9 49 -6 -6 -23 -72 -22 -69 -20 -48 -35 17 -13 16 -14 -15 -19 -19 -3 -68
-7 -109 -10 -104 -6 -111 -10 -94 -45 11 -22 27 -32 73 -45 33 -9 63 -16 68
-15 4 1 15 -1 23 -4 8 -4 33 -10 54 -15 92 -18 21 -52 -106 -50 -83 1 -105 15
-65 43 20 14 18 15 -40 15 -34 0 -64 4 -67 9 -3 4 -33 11 -65 15 -82 9 -101
40 -25 40 29 0 45 9 90 51 30 29 51 54 48 57 -3 4 -19 2 -36 -3 -17 -4 -36 -5
-42 -1 -6 4 -38 7 -71 8 -66 0 -120 18 -109 35 4 7 22 9 48 5 36 -6 45 -3 73
21 18 16 33 42 37 61 3 17 4 32 1 32 -2 0 -29 -7 -60 -15 -38 -10 -64 -11 -80
-5 -33 12 -32 30 1 30 14 0 23 4 19 10 -3 6 1 17 9 26 25 24 10 33 -47 28 -57
-6 -127 5 -130 21 -1 6 13 11 31 12 51 2 64 10 57 33 -5 17 -2 20 24 20 17 0
31 4 31 9 0 5 16 18 35 30 19 11 35 25 35 31 0 15 -69 43 -88 35 -10 -4 -22 2
-32 15 -15 20 -17 20 -54 5 -38 -16 -73 -14 -128 7 -34 13 -39 43 -7 35 12 -3
57 -1 101 6 73 10 80 14 99 44 12 18 29 38 40 43 10 6 19 14 19 18 0 15 -86
40 -118 35 -26 -4 -32 -2 -32 12 0 14 -5 16 -27 9 -16 -4 -44 -8 -63 -7 -38 1
-130 39 -130 54 0 10 97 5 142 -6 21 -5 30 -2 40 14 7 12 18 21 25 21 6 0 15
9 18 20 4 13 14 20 24 18 9 -1 29 9 45 23 l28 26 -35 7 c-19 3 -41 4 -49 1 -8
-3 -20 1 -27 9 -11 13 -17 12 -46 -6 -33 -19 -37 -19 -84 -3 -27 8 -57 25 -67
37 -19 20 -19 20 16 13 19 -4 45 -9 58 -12 16 -4 22 -1 22 11 0 19 13 20 41 6
15 -8 21 -7 25 5 3 8 10 12 16 9 5 -3 19 4 30 16 11 11 31 25 44 30 31 12 31
30 1 30 -13 0 -28 5 -34 11 -9 9 -20 9 -44 -2 -26 -10 -34 -10 -37 0 -9 26
-54 33 -94 15 -43 -19 -68 -13 -68 16 0 15 -7 20 -27 20 -21 0 -24 3 -15 12
10 10 17 10 32 0 16 -10 21 -9 31 9 l11 21 24 -23 c19 -18 27 -20 36 -11 7 7
23 12 36 12 13 0 32 5 43 11 19 10 20 12 4 29 -9 10 -30 22 -45 25 -16 4 -30
14 -33 26 -4 16 -11 19 -26 14 -25 -8 -30 19 -5 29 20 8 9 26 -17 26 -10 0
-19 7 -19 15 0 9 9 15 23 15 12 0 31 8 42 16 19 15 19 16 2 29 -16 11 -17 17
-7 35 9 18 9 24 0 30 -7 4 -9 16 -5 29 4 15 2 21 -9 21 -8 0 -18 -5 -21 -10
-3 -5 -17 -10 -31 -10 -17 0 -28 -8 -36 -27 -15 -34 -58 -83 -73 -83 -17 0
-28 100 -13 117 7 8 15 10 22 4 11 -9 66 -4 66 7 0 3 -7 14 -17 24 -15 17 -15
18 5 18 24 0 37 15 22 25 -6 4 -8 15 -5 25 5 15 0 18 -30 17 -30 -1 -40 -7
-53 -32 -16 -29 -17 -29 -20 -7 -2 14 7 40 22 63 14 21 26 43 26 49 0 13 -17
13 -25 0 -10 -17 -25 -11 -25 9 0 26 -10 51 -21 51 -5 0 -9 -20 -9 -45 0 -46
-13 -58 -38 -33 -21 21 -14 -14 8 -42 20 -26 28 -86 10 -75 -6 3 -10 14 -10
23 0 30 -17 47 -32 34 -8 -6 -24 -9 -36 -5 -26 6 -28 -4 -6 -35 9 -13 13 -31
9 -43 -5 -15 -2 -22 14 -26 12 -3 21 -10 21 -15 0 -5 -9 -6 -21 -3 -19 6 -20
4 -14 -23 8 -40 -8 -48 -49 -23 -18 12 -38 21 -44 21 -18 0 -9 -64 11 -78 21
-16 22 -38 2 -46 -28 -10 -15 -23 31 -30 26 -3 52 -13 59 -23 8 -11 26 -17 49
-17 49 0 47 -22 -3 -31 -29 -5 -52 -1 -85 14 -38 16 -47 17 -54 6 -6 -12 -15
-11 -49 7 -40 20 -44 21 -61 5 -10 -9 -28 -17 -40 -17 -33 0 -26 -20 9 -27 19
-3 34 -14 36 -25 3 -11 14 -18 28 -18 12 0 28 -6 34 -14 7 -8 21 -12 31 -9 11
3 20 1 20 -5 0 -13 44 -21 62 -11 8 5 34 12 57 18 40 9 42 8 26 -9 -8 -9 -34
-25 -56 -35 -35 -16 -45 -17 -76 -6 -28 10 -37 11 -43 1 -5 -7 -16 -9 -29 -5
-12 4 -28 2 -35 -4 -7 -6 -24 -10 -36 -9 -53 6 -22 -44 46 -77 44 -21 43 -33
-3 -31 -36 1 -38 -1 -35 -26 4 -32 1 -33 -29 -15 -17 10 -23 10 -26 0 -3 -7
-18 -13 -35 -13 l-31 0 25 -22 c26 -25 91 -58 111 -58 18 0 90 -78 82 -89 -9
-16 -88 -23 -118 -12 -23 9 -29 8 -34 -5 -4 -10 -13 -14 -29 -10 -12 3 -25 2
-28 -2 -8 -13 51 -70 90 -88 44 -21 33 -38 -19 -31 -23 3 -54 3 -69 0 -27 -5
-27 -6 -10 -29 9 -13 24 -24 33 -24 9 0 24 -9 34 -20 21 -24 58 -26 75 -5 7 8
19 15 27 15 12 0 13 -3 4 -14 -6 -7 -9 -20 -6 -28 7 -18 -49 -44 -115 -54 -25
-3 -52 -12 -60 -19 -8 -7 -28 -16 -45 -19 -29 -7 -29 -8 -10 -21 11 -8 29 -23
40 -33 25 -23 150 -49 168 -34 6 5 33 13 60 16 72 11 58 -10 -24 -35 l-72 -22
24 -17 23 -18 -44 -6 c-25 -3 -84 -8 -132 -11 -47 -3 -97 -9 -109 -13 l-23 -9
23 -12 c16 -9 20 -16 12 -25 -8 -10 -4 -16 15 -24 14 -7 34 -12 44 -12 11 0
20 -5 20 -11 0 -6 8 -8 19 -4 11 3 22 1 26 -5 3 -5 17 -7 31 -4 13 3 24 2 24
-4 0 -5 21 -13 48 -17 54 -8 85 -22 77 -35 -3 -5 -38 -16 -78 -25 -55 -12 -80
-14 -101 -5 -19 7 -32 7 -40 0 -7 -5 -37 -7 -67 -4 -48 5 -52 4 -36 -9 9 -8
17 -18 17 -23 0 -17 40 -45 73 -51 42 -8 87 -31 87 -44 0 -7 9 -9 21 -6 41 11
12 -18 -37 -36 -42 -16 -56 -17 -98 -8 -36 8 -52 8 -62 0 -8 -6 -25 -8 -39 -5
-18 5 -27 2 -31 -9 -4 -9 -18 -15 -35 -15 -37 0 -38 -17 0 -25 22 -5 27 -10
24 -28 -6 -30 30 -62 71 -62 48 0 40 -28 -12 -39 -46 -10 -54 -21 -21 -31 11
-4 18 -13 15 -20 -5 -14 26 -29 81 -40 58 -12 35 -24 -49 -27 -65 -2 -83 -6
-83 -18 0 -8 -11 -17 -24 -20 -14 -3 -26 -11 -29 -19 -3 -9 6 -12 34 -10 32 3
38 1 36 -14 -2 -12 4 -17 21 -17 14 0 27 -7 31 -15 4 -11 13 -14 31 -9 19 5
25 2 25 -11 0 -16 2 -16 26 0 18 12 29 13 38 6 7 -6 15 -10 17 -8 2 1 1 -2 -4
-8 -4 -5 -46 -10 -93 -11 -51 0 -89 -5 -96 -12 -7 -7 -20 -12 -31 -12 -14 0
-17 -5 -12 -19 4 -14 0 -21 -15 -26 -29 -9 -25 -28 5 -23 16 3 25 1 25 -7 0
-19 28 -29 93 -33 24 -2 27 -5 22 -22 -5 -16 -2 -20 15 -20 17 0 20 -4 15 -20
-6 -18 -3 -19 26 -13 23 4 30 3 25 -5 -5 -9 -73 -12 -232 -12 l-224 0 0 -395
0 -395 6400 0 6400 0 0 395 0 395 -286 0 c-266 0 -285 1 -282 18 4 20 43 28
62 13 7 -6 31 -13 55 -16 37 -4 44 -2 48 15 6 21 18 26 27 11 10 -16 87 -6 98
12 5 9 19 17 31 17 12 0 30 7 41 15 17 13 15 14 -20 20 -22 4 -54 11 -72 17
-27 8 -31 12 -21 24 6 8 18 14 25 14 8 0 14 5 14 10 0 6 6 10 14 10 8 0 17 11
20 25 4 14 13 25 20 25 8 0 16 9 19 20 3 13 0 20 -8 20 -29 0 -24 20 7 34 l33
14 -32 1 c-17 1 -33 7 -36 14 -3 9 -13 8 -41 -5 -20 -10 -51 -18 -68 -18 -32
0 -168 57 -168 70 0 13 54 19 74 8 11 -6 21 -6 25 -1 10 15 47 21 65 11 12 -7
16 -5 16 11 0 23 27 34 82 34 25 0 38 4 38 13 0 8 9 14 20 14 25 0 26 12 2 33
-12 11 -36 17 -65 17 -27 0 -47 5 -47 11 0 7 -16 8 -44 4 -56 -9 -206 37 -206
62 0 11 6 13 23 8 12 -4 62 -9 110 -12 72 -5 91 -3 105 10 10 9 38 23 62 32
25 8 51 17 58 20 10 4 10 10 2 24 -7 13 -7 22 0 26 20 13 9 20 -32 21 -45 2
-165 28 -176 39 -11 10 22 26 44 20 15 -3 36 10 75 46 l54 51 -35 -2 c-19 -1
-37 -1 -40 0 -3 2 -34 3 -70 4 -36 1 -76 8 -90 16 -23 12 -24 14 -5 20 11 4
34 5 50 3 39 -6 81 26 87 67 5 33 1 35 -56 19 -40 -11 -86 -5 -86 11 0 6 7 10
15 10 8 0 15 6 15 14 0 7 7 19 15 26 22 18 11 24 -41 21 -62 -4 -126 8 -121
22 2 7 13 11 25 9 30 -4 62 15 56 33 -5 11 1 15 19 15 14 0 27 7 31 15 3 8 12
15 19 15 8 0 22 9 31 19 17 19 17 20 -13 35 -16 9 -40 16 -51 16 -12 0 -28 6
-36 14 -12 13 -19 13 -47 1 -35 -14 -109 -7 -130 14 -16 16 -6 21 52 23 29 1
55 6 57 10 3 4 21 8 40 8 20 0 34 5 34 12 0 7 14 27 32 45 l31 33 -35 14 c-22
9 -49 13 -72 9 -29 -5 -36 -3 -36 11 0 13 -5 16 -22 10 -50 -15 -155 11 -165
41 -3 10 55 11 110 1 25 -4 38 0 60 19 15 13 27 29 27 35 0 5 9 10 20 10 23 0
67 36 57 46 -3 4 -25 7 -47 7 -22 0 -43 3 -46 8 -2 5 -19 1 -37 -7 -27 -13
-41 -14 -73 -5 -40 12 -81 37 -73 45 3 3 22 1 44 -4 30 -7 43 -6 50 3 6 7 26
13 45 13 24 0 44 8 64 27 16 15 35 27 42 27 27 0 13 15 -23 27 -23 7 -45 8
-59 2 -15 -5 -26 -4 -30 2 -14 22 -54 29 -84 14 -40 -21 -49 -19 -60 10 -6 15
-15 23 -24 19 -17 -6 -31 12 -16 21 6 4 18 1 26 -6 13 -11 18 -10 26 5 9 16
11 16 29 1 12 -12 24 -15 36 -9 10 4 29 9 42 10 49 6 56 12 36 34 -10 11 -24
20 -32 20 -7 0 -21 9 -30 20 -10 11 -25 20 -35 20 -19 0 -24 15 -8 25 16 10
11 22 -11 28 -12 3 -18 10 -15 16 4 6 12 8 19 5 7 -2 22 5 32 16 16 18 17 23
5 30 -13 8 -13 13 -1 32 10 16 10 23 2 26 -6 2 -11 12 -11 23 0 20 -15 26 -25
9 -4 -6 -15 -8 -25 -5 -15 5 -24 -3 -39 -33 -41 -81 -84 -83 -79 -5 3 41 6 48
23 46 11 -2 31 0 44 3 22 5 23 6 6 24 -17 19 -17 20 3 20 24 0 37 15 22 25 -6
4 -8 14 -5 24 4 14 0 16 -31 13 -25 -3 -38 -10 -41 -23 -5 -18 -33 -27 -33
-11 0 4 13 29 30 55 21 33 25 47 15 47 -7 0 -17 -5 -21 -11 -9 -15 -24 9 -24
39 0 12 -4 22 -10 22 -5 0 -10 -18 -10 -40 0 -43 -2 -45 -31 -30 -24 14 -24 3
1 -35 11 -16 20 -41 20 -54 0 -28 -16 -18 -22 14 -2 15 -11 20 -37 20 -40 0
-48 -10 -26 -35 11 -12 14 -26 10 -39 -5 -15 -2 -21 9 -21 9 0 16 -4 16 -10 0
-5 -7 -10 -15 -10 -11 0 -14 -7 -9 -25 5 -21 3 -25 -17 -25 -13 0 -33 7 -43
15 -11 8 -23 15 -28 15 -13 0 -3 -65 12 -77 12 -10 13 -15 3 -32 -18 -29 -18
-28 32 -35 25 -4 45 -11 45 -15 0 -11 39 -24 63 -21 21 2 23 -16 1 -24 -27
-10 -62 -7 -99 11 -30 14 -38 15 -45 4 -7 -12 -15 -10 -45 8 -34 20 -39 20
-55 6 -9 -8 -24 -15 -33 -15 -29 0 -18 -27 13 -34 17 -3 29 -11 28 -18 -2 -8
5 -12 16 -11 11 1 25 -6 32 -14 6 -9 18 -14 27 -10 10 4 20 0 25 -10 10 -16
12 -16 95 5 37 10 38 9 22 -8 -29 -32 -71 -44 -104 -30 -17 6 -36 8 -43 4 -7
-4 -33 -9 -57 -11 -24 -1 -49 -7 -54 -12 -14 -14 14 -45 60 -66 38 -18 37 -29
-5 -30 -22 0 -26 -4 -24 -23 3 -19 -1 -22 -25 -20 -45 3 -83 -1 -83 -9 0 -12
65 -53 102 -67 28 -9 98 -68 98 -81 0 -2 -19 -9 -42 -15 -31 -9 -48 -9 -66 0
-18 8 -28 8 -36 0 -5 -5 -20 -10 -33 -10 -13 0 -23 -4 -23 -8 0 -12 64 -72 77
-72 6 0 16 -6 22 -14 9 -11 7 -15 -10 -19 -12 -3 -30 -2 -40 4 -11 6 -27 5
-45 -1 -26 -10 -26 -11 -9 -30 10 -11 22 -20 27 -20 5 0 22 -10 39 -22 28 -21
31 -21 58 -5 33 19 50 22 34 6 -6 -6 -9 -17 -6 -25 7 -18 -43 -41 -105 -50
-29 -3 -57 -13 -63 -20 -6 -8 -20 -14 -30 -14 -11 0 -19 -3 -19 -6 0 -13 60
-64 76 -64 9 0 34 -5 55 -12 29 -8 45 -8 62 0 31 15 97 25 97 14 0 -11 -77
-42 -103 -42 -21 0 -22 -19 -1 -27 29 -11 -8 -23 -76 -23 -72 -1 -156 -13
-167 -24 -4 -4 -1 -11 6 -15 7 -5 10 -14 7 -20 -4 -6 3 -15 16 -20 51 -20 63
-25 73 -26 6 0 16 -4 23 -8 7 -5 21 -5 32 -2 11 4 20 2 20 -3 0 -6 22 -13 48
-17 74 -10 84 -21 37 -42 -30 -13 -68 -17 -157 -17 -116 -1 -117 -1 -100 -21
37 -44 53 -55 92 -64 23 -5 50 -17 60 -26 10 -9 24 -14 29 -10 6 3 11 2 11 -4
0 -23 -49 -35 -150 -37 -65 -1 -106 -6 -108 -13 -2 -6 -17 -11 -33 -11 -34 0
-39 -16 -8 -25 11 -4 18 -9 16 -12 -8 -7 -157 18 -162 28 -7 10 32 22 46 14 6
-4 23 4 37 18 15 13 37 30 50 36 39 20 24 28 -50 26 -78 -2 -158 12 -158 26 0
5 22 9 48 9 53 0 92 25 92 60 0 18 -5 19 -64 13 -42 -4 -66 -2 -70 6 -4 6 -2
11 5 11 12 0 38 29 39 43 0 4 -29 7 -64 7 -65 0 -96 6 -96 19 0 4 14 8 31 8
18 0 37 6 43 14 6 9 18 18 26 22 34 16 74 44 77 54 4 12 -55 36 -69 27 -5 -3
-18 2 -28 11 -17 15 -24 16 -50 5 -36 -15 -113 -6 -130 15 -10 13 -8 15 16 16
117 2 146 10 180 46 19 20 34 37 34 39 0 11 -60 32 -78 27 -12 -3 -30 -2 -39
2 -10 4 -45 9 -78 10 -57 2 -115 20 -115 35 0 4 33 6 73 4 66 -4 74 -2 99 21
15 14 33 25 40 25 7 0 24 9 37 19 l24 19 -30 6 c-17 4 -34 6 -39 5 -5 -1 -17
1 -27 6 -11 4 -23 3 -30 -4 -16 -16 -60 -14 -107 5 -52 21 -51 34 2 23 30 -7
43 -7 49 2 3 6 22 12 42 14 45 2 113 43 97 59 -6 6 -31 10 -56 9 -24 -1 -56 4
-70 12 -22 11 -31 11 -59 -1 -55 -23 -83 -1 -48 38 15 17 18 17 34 2 12 -10
25 -14 36 -9 10 4 29 9 42 11 46 6 48 23 3 41 -23 9 -42 20 -42 25 0 4 -9 8
-20 8 -22 0 -27 15 -9 26 8 4 3 12 -12 20 -13 7 -22 14 -19 14 3 1 13 3 24 5
29 6 41 22 28 38 -9 10 -9 16 0 25 9 9 9 15 1 23 -6 6 -9 18 -6 25 6 16 -13
19 -23 3 -3 -6 -15 -8 -26 -6 -14 4 -24 -2 -35 -21 -21 -37 -62 -67 -75 -54
-5 5 -8 27 -6 48 3 39 3 39 41 36 35 -3 38 -2 32 17 -5 16 -2 21 10 21 12 0
15 5 11 16 -3 9 -6 20 -6 25 0 19 -58 9 -72 -13 -9 -13 -17 -18 -21 -11 -4 6
5 27 19 48 25 38 26 57 1 37 -16 -14 -27 -6 -27 20 0 29 -18 21 -22 -9 -2 -23
-7 -27 -27 -25 l-24 4 22 -31 c13 -17 21 -39 18 -49 -3 -14 -6 -12 -15 9 -9
22 -15 25 -41 21 -32 -4 -40 -15 -20 -28 6 -3 9 -15 6 -25 -3 -11 2 -23 11
-29 15 -8 15 -9 -1 -10 -13 0 -17 -5 -12 -19 8 -28 -10 -34 -44 -16 -17 8 -35
15 -41 15 -14 0 -3 -39 18 -63 14 -16 14 -19 -3 -31 -16 -12 -14 -14 26 -20
24 -4 47 -12 51 -18 3 -7 23 -12 42 -12 21 0 35 -4 33 -11 -6 -16 -179 -6
-214 13 -18 10 -27 9 -52 -6 -36 -20 -40 -32 -11 -32 11 0 23 -7 26 -15 4 -8
17 -15 29 -15 13 0 27 -5 30 -11 4 -6 13 -8 21 -5 7 3 16 0 20 -5 4 -7 29 -8
68 -4 57 5 60 5 41 -10 -29 -23 -63 -29 -92 -16 -14 7 -30 8 -37 3 -6 -5 -31
-9 -55 -10 -59 -1 -74 -17 -41 -43 14 -10 35 -22 48 -25 12 -3 22 -10 22 -15
0 -5 -12 -6 -26 -3 -20 5 -26 2 -31 -16 -4 -17 -11 -20 -29 -16 -12 3 -26 2
-29 -4 -3 -5 -16 -10 -27 -10 -20 0 -20 -1 3 -19 13 -10 42 -25 64 -32 49 -17
113 -65 101 -76 -4 -4 -35 -8 -69 -8 -34 -1 -68 -4 -74 -8 -7 -5 -17 -6 -22
-2 -5 3 -12 1 -15 -3 -7 -11 44 -59 67 -64 34 -6 12 -23 -30 -23 -71 0 -70
-22 3 -55 34 -14 51 -17 64 -10 26 14 30 13 30 -8 0 -23 -31 -38 -94 -47 -26
-4 -63 -15 -82 -24 l-34 -17 27 -20 c39 -28 136 -49 163 -34 11 6 38 10 58 8
l37 -3 -58 -19 c-46 -15 -55 -21 -46 -32 6 -8 10 -14 8 -15 -2 0 -57 -4 -122
-8 -114 -8 -143 -15 -121 -29 6 -4 13 -14 16 -22 4 -11 43 -23 124 -39 66 -13
126 -27 134 -32 32 -17 -44 -32 -162 -33 -65 -1 -118 -4 -118 -7 0 -16 56 -59
77 -59 13 0 45 -11 70 -25 l46 -24 -29 -12 c-16 -6 -71 -12 -122 -12 -51 0
-95 -4 -98 -8 -3 -5 -16 -9 -30 -9 -13 0 -24 -4 -24 -10 0 -5 7 -10 15 -10 9
0 20 -12 26 -27 13 -34 26 -43 62 -43 38 0 30 -22 -11 -32 l-32 -9 26 -24 c14
-13 39 -27 55 -30 51 -11 31 -25 -36 -25 -51 0 -65 -3 -65 -15 0 -8 -9 -15
-20 -15 -11 0 -20 -4 -20 -10 0 -5 14 -10 30 -10 17 0 30 -4 30 -10 0 -5 9
-10 19 -10 11 0 21 -6 23 -12 3 -7 14 -13 26 -13 12 0 21 -4 19 -10 -1 -5 -9
-9 -17 -8 -35 6 -82 -10 -110 -37 -23 -23 -27 -30 -14 -30 9 0 22 -7 28 -15 6
-9 29 -16 54 -17 28 -1 42 -6 42 -15 0 -7 7 -16 15 -19 8 -4 15 -12 15 -20 0
-12 -63 -14 -390 -14 -355 0 -414 4 -382 24 5 3 9 88 10 189 l2 183 -40 23
c-49 27 -70 56 -70 96 0 37 31 175 40 175 3 0 19 -13 35 -30 42 -44 49 -38 42
30 -9 84 -44 125 -151 179 l-82 41 -373 5 c-222 3 -379 9 -391 15 -16 9 -50
96 -50 129 0 6 15 17 34 25 41 17 65 50 73 101 6 38 6 38 -23 31 -16 -4 -46
-19 -67 -33 -20 -14 -40 -23 -43 -20 -13 13 22 51 115 126 114 93 138 120 147
167 9 47 -2 54 -19 13 -8 -19 -22 -41 -32 -49 -16 -14 -17 -12 -11 35 4 28 3
61 -2 74 -9 24 -9 24 -16 -10 l-7 -34 -22 40 c-12 22 -31 41 -40 43 -16 3 -15
-2 7 -45 45 -83 28 -111 -44 -74 -48 25 -50 25 -50 7 0 -8 25 -26 56 -41 45
-21 55 -30 52 -48 -4 -25 -113 -111 -132 -104 -8 3 -21 25 -30 49 l-16 43 4
-45 c2 -25 7 -55 11 -67 10 -31 -25 -63 -70 -63 -45 0 -53 19 -31 69 19 41 18
102 -1 109 -9 2 -13 -9 -13 -35 0 -22 -7 -48 -15 -59 -15 -18 -17 -17 -55 25
-45 50 -49 73 -26 181 8 36 12 67 11 68 -8 8 -34 -57 -45 -110 -13 -68 -23
-77 -45 -44 -12 18 -15 37 -10 68 3 24 2 57 -3 73 -9 28 -10 26 -17 -28 -9
-66 -25 -71 -39 -11 -15 69 -16 71 -28 51 -12 -23 5 -98 33 -144 11 -17 50
-56 87 -86 37 -30 75 -69 85 -86 18 -30 18 -31 -2 -31 -11 0 -32 5 -46 12 -14
6 -28 8 -32 5 -9 -10 28 -86 49 -101 26 -19 49 -92 42 -136 -5 -33 -3 -40 19
-54 18 -13 27 -29 31 -64 12 -80 25 -108 102 -214 73 -99 103 -129 152 -148
18 -8 22 -17 22 -58 0 -91 -29 -267 -57 -347 l-28 -80 -1009 -3 c-801 -2
-1011 0 -1018 10 -4 7 -8 33 -8 58 l1 45 27 -32 c28 -33 36 -36 90 -34 21 1
32 6 32 16 0 17 35 21 45 5 9 -15 55 -12 61 3 3 8 17 11 38 9 28 -3 34 0 39
20 4 12 16 28 28 33 36 16 32 31 -10 44 -22 6 -43 16 -46 21 -3 6 6 26 22 46
15 20 29 46 30 57 2 12 7 24 12 27 17 11 19 50 3 59 -15 9 -14 12 7 35 24 25
24 26 4 26 -12 0 -23 6 -26 13 -3 9 -9 7 -24 -5 -34 -31 -68 -22 -120 29 -48
46 -48 46 -23 53 14 4 29 3 34 -1 5 -4 19 -1 32 8 13 8 24 11 25 7 1 -5 4 2 8
16 5 19 17 27 49 35 24 6 39 14 35 19 -4 4 0 14 10 21 17 12 17 15 3 38 -12
18 -23 23 -41 19 -16 -3 -27 1 -31 11 -4 11 -14 15 -33 11 -20 -4 -39 3 -76
29 -50 34 -70 67 -41 67 8 0 18 -4 21 -10 3 -5 30 -10 59 -10 46 0 56 4 70 25
9 13 30 32 47 40 27 14 30 20 24 46 -4 18 -2 36 5 44 11 13 7 15 -23 15 -22 0
-37 6 -41 15 -3 8 -16 15 -29 15 -27 0 -52 24 -42 40 3 5 14 10 25 10 15 0 30
18 34 40 1 3 11 20 24 37 13 18 21 37 18 41 -3 5 -28 7 -55 6 -38 -1 -57 3
-76 18 -29 23 -23 42 10 34 29 -7 55 29 60 85 4 42 -1 45 -39 28 -20 -9 -29
-9 -42 2 -14 11 -14 14 -1 24 9 6 18 27 22 47 l7 37 -53 3 c-35 2 -54 7 -54
16 0 6 5 12 10 13 24 2 46 22 41 36 -4 9 6 28 24 46 17 18 33 42 37 54 6 26
-12 53 -35 53 -8 0 -20 7 -26 16 -10 13 -16 14 -39 3 -24 -11 -31 -10 -54 7
-15 11 -28 25 -30 30 -2 5 24 16 57 23 33 7 60 18 60 23 0 6 11 32 24 58 l24
48 -22 21 c-14 13 -29 18 -44 14 -16 -4 -22 -1 -22 12 0 13 -6 15 -30 10 -24
-5 -38 -1 -65 20 -49 36 -45 47 16 43 51 -3 52 -2 71 35 11 20 24 37 29 37 5
0 9 6 9 14 0 7 7 19 16 27 14 12 14 14 -1 25 -9 7 -23 10 -30 8 -7 -3 -16 0
-20 6 -5 8 -13 6 -27 -7 -17 -16 -22 -16 -45 -3 -14 8 -33 26 -41 39 -16 23
-16 23 16 16 25 -5 33 -3 38 9 5 12 10 14 19 6 13 -11 20 -4 64 58 22 32 22
34 4 47 -10 8 -28 11 -40 8 -15 -3 -25 0 -29 11 -7 19 -35 21 -51 5 -14 -14
-47 -3 -37 12 4 7 -4 20 -17 30 l-24 19 28 0 c15 0 27 5 27 12 0 6 6 4 13 -5
11 -17 15 -17 44 -2 46 23 48 32 14 64 -17 16 -31 36 -31 45 0 9 -7 16 -15 16
-18 0 -19 4 -3 30 11 16 9 22 -7 34 -18 13 -18 14 10 39 27 23 28 27 16 50
-10 18 -10 30 -2 45 7 14 8 23 1 27 -5 3 -10 17 -10 31 0 24 -1 24 -24 9 -14
-9 -27 -30 -30 -50 -4 -18 -15 -44 -25 -56 -18 -22 -18 -22 -25 39 -8 71 -4
82 24 75 23 -6 39 22 21 40 -15 15 -14 27 3 27 9 0 13 12 12 38 0 32 -4 38
-19 34 -10 -2 -24 -16 -32 -31 -19 -35 -19 -8 0 55 18 61 19 67 1 61 -11 -4
-16 3 -19 26 l-4 32 -1 -32z m-15 -165 c-3 -7 -5 -2 -5 12 0 14 2 19 5 13 2
-7 2 -19 0 -25z m-5399 -583 c-3 -3 -9 2 -12 12 -6 14 -5 15 5 6 7 -7 10 -15
7 -18z m4102 -60 c7 -8 8 -15 2 -15 -5 0 -15 7 -22 15 -7 8 -8 15 -2 15 5 0
15 -7 22 -15z m-4115 -16 c11 -17 0 -20 -21 -4 -17 13 -17 14 -2 15 9 0 20 -5
23 -11z m5350 -54 c-21 -17 -37 -15 -43 3 -2 8 8 12 30 12 31 -1 32 -1 13 -15z
m-1150 -5 c3 -5 1 -10 -4 -10 -6 0 -11 5 -11 10 0 6 2 10 4 10 3 0 8 -4 11
-10z m-4100 -20 c-3 -5 -10 -10 -16 -10 -5 0 -9 5 -9 10 0 6 7 10 16 10 8 0
12 -4 9 -10z m10881 -107 c-7 -7 -26 7 -26 19 0 6 6 6 15 -2 9 -7 13 -15 11
-17z m94 -57 c0 -3 -4 -8 -10 -11 -5 -3 -10 -1 -10 4 0 6 5 11 10 11 6 0 10
-2 10 -4z m-9865 -106 c3 -5 1 -10 -4 -10 -6 0 -11 5 -11 10 0 6 2 10 4 10 3
0 8 -4 11 -10z m2839 -71 c-7 -11 -71 -12 -78 -1 -3 5 15 9 39 10 25 0 43 -4
39 -9z m-4129 -11 c8 -8 -63 -18 -81 -11 -8 3 -14 9 -14 13 0 8 86 7 95 -2z
m10963 -131 c13 3 22 1 22 -6 0 -6 -17 -11 -40 -11 -29 0 -40 4 -40 15 0 12 4
13 18 6 10 -6 28 -7 40 -4z m-8448 -131 c0 -9 -39 -13 -51 -5 -10 6 -4 9 19 9
17 0 32 -2 32 -4z m-1290 -28 c0 -4 -16 -8 -35 -8 -19 0 -35 4 -35 8 0 4 16 8
35 8 19 0 35 -4 35 -8z m8720 -18 c0 -5 -7 -10 -16 -10 -8 0 -12 5 -9 10 3 6
10 10 16 10 5 0 9 -4 9 -10z m-255 -140 c3 -5 -1 -10 -9 -10 -8 0 -18 5 -21
10 -3 6 1 10 9 10 8 0 18 -4 21 -10z m45 6 c0 -3 -4 -8 -10 -11 -5 -3 -10 -1
-10 4 0 6 5 11 10 11 6 0 10 -2 10 -4z m-6637 -593 c15 -14 35 -18 91 -16 l71
1 -37 -15 c-21 -8 -38 -21 -38 -28 0 -14 -184 -30 -214 -19 -21 8 -16 28 10
33 10 1 32 16 48 32 33 34 42 35 69 12z m-2198 -113 c17 -11 38 -20 48 -20 11
0 31 -9 47 -20 15 -11 30 -17 34 -13 3 3 6 1 6 -6 0 -21 -53 -33 -155 -36 -55
-2 -103 -1 -107 2 -5 2 -41 5 -80 7 -50 2 -92 10 -132 27 -68 28 -90 56 -35
45 19 -4 73 -9 120 -13 81 -5 90 -4 130 21 53 31 84 33 124 6z m2271 -51 c50
-13 56 -26 17 -35 -32 -9 -131 -9 -139 -2 -4 4 41 33 74 47 2 0 23 -4 48 -10z
m-205 -64 c50 0 72 -5 86 -17 11 -10 29 -18 40 -18 11 0 28 -9 38 -20 16 -18
16 -20 1 -26 -9 -3 -24 -3 -33 2 -10 4 -29 9 -43 11 -115 12 -210 44 -210 71
0 11 6 12 28 6 15 -5 57 -9 93 -9z m-3323 -17 c8 -8 15 -8 25 1 8 6 22 9 31 5
32 -12 15 -24 -34 -24 -38 0 -50 4 -50 15 0 18 12 19 28 3z m10961 -12 c19
-12 4 -24 -39 -31 -43 -7 -52 -20 -20 -28 11 -3 19 -11 18 -18 -2 -8 17 -18
50 -27 28 -8 52 -19 52 -25 0 -16 -108 -2 -129 17 -14 13 -28 15 -58 10 -26
-4 -43 -2 -47 5 -4 6 -31 11 -59 11 -51 0 -106 11 -159 32 -45 17 -33 30 20
22 69 -11 166 -8 193 7 59 31 147 44 178 25z m92 -9 c18 3 29 1 29 -6 0 -6
-18 -11 -45 -11 -42 0 -54 7 -38 24 4 3 11 2 16 -3 6 -6 23 -7 38 -4z m-2542
-27 c78 10 85 10 94 -7 11 -20 82 -90 140 -139 20 -17 37 -38 37 -47 0 -23
-143 -210 -174 -226 -14 -8 -26 -23 -26 -33 0 -17 -11 -18 -154 -18 l-154 0
-6 26 c-4 14 -3 31 3 37 6 8 5 35 -4 77 -19 95 -47 318 -41 328 2 4 49 4 103
0 62 -6 129 -5 182 2z m-7309 -33 c30 -2 34 -30 5 -35 -45 -7 -51 -12 -32 -27
18 -13 18 -14 -2 -34 -44 -44 -108 -38 -226 22 l-60 31 38 8 c25 5 46 4 59 -3
13 -7 23 -7 27 -2 11 17 62 25 77 12 11 -9 14 -6 14 16 0 26 2 27 38 21 20 -4
48 -7 62 -9z m1480 2 c0 -11 -47 -12 -54 -1 -3 5 8 9 24 10 17 0 30 -4 30 -9z
m-1340 -18 c2 -1 -1 -6 -7 -12 -11 -11 -86 -2 -78 11 3 5 62 6 85 1z m2766
-17 c23 -3 50 -11 60 -19 17 -13 13 -14 -42 -15 -61 0 -154 24 -154 41 0 8 22
7 136 -7z m5671 -20 c-3 -3 -12 -4 -19 -1 -8 3 -5 6 6 6 11 1 17 -2 13 -5z
m53 -4 c0 -5 -9 -10 -21 -10 -11 0 -17 5 -14 10 3 6 13 10 21 10 8 0 14 -4 14
-10z m-6486 -29 c3 -5 16 -7 28 -3 14 3 19 2 14 -6 -4 -7 -14 -12 -22 -12 -17
0 -17 -5 -4 -31 9 -15 7 -21 -5 -25 -19 -8 -88 21 -110 46 -15 17 -15 19 4 25
12 3 25 4 31 0 5 -3 18 -1 27 4 22 13 30 13 37 2z m5564 -21 l34 -21 -4 -130
c-3 -129 -3 -131 -31 -155 -26 -22 -36 -24 -138 -24 -113 0 -124 5 -90 39 10
10 30 40 45 67 15 27 52 80 82 117 47 59 54 73 49 98 -8 35 6 38 53 9z m-733
-47 c20 -44 28 -80 32 -146 5 -82 4 -89 -17 -112 -21 -22 -32 -25 -97 -25 -42
0 -73 4 -73 10 0 6 4 10 9 10 5 0 13 26 16 58 11 90 73 262 95 262 4 0 21 -26
35 -57z m2649 42 c-5 -12 2 -15 30 -15 25 0 36 -4 36 -15 0 -8 9 -15 19 -15
10 0 21 -6 24 -14 4 -9 14 -12 25 -9 11 2 23 0 26 -6 5 -8 13 -8 27 -1 12 7
25 7 36 2 14 -8 14 -10 -6 -17 -28 -9 -191 5 -191 16 0 4 -19 1 -42 -7 -53
-19 -105 -12 -178 23 -51 24 -53 26 -30 33 14 4 34 3 46 -1 11 -4 28 -2 38 3
10 6 32 7 49 4 17 -3 28 -3 24 0 -13 13 15 34 44 34 21 0 27 -4 23 -15z
m-6724 -74 c4 -8 15 -11 24 -8 10 4 16 1 16 -8 0 -22 -53 -19 -100 5 -22 11
-40 23 -40 25 0 12 92 -2 100 -14z m-2847 -63 c3 -10 7 -10 20 0 9 8 21 11 27
7 20 -12 -1 -25 -41 -25 -28 0 -39 4 -39 15 0 18 27 20 33 3z m8547 -8 c0 -5
-9 -10 -21 -10 -11 0 -17 5 -14 10 3 6 13 10 21 10 8 0 14 -4 14 -10z m1120
-69 c35 -5 44 -10 42 -24 -2 -10 3 -17 13 -17 8 0 15 -7 15 -16 0 -11 6 -15
20 -11 13 3 24 -3 35 -19 l15 -24 -125 0 c-69 0 -125 3 -125 8 1 18 18 32 33
26 9 -3 26 1 37 9 21 14 20 15 -22 22 -60 9 -78 15 -78 25 0 15 54 39 75 33
11 -3 40 -8 65 -12z m520 -6 c6 -8 9 -22 7 -32 -3 -10 -8 -30 -11 -45 -6 -28
-7 -28 -92 -28 -76 0 -85 2 -74 15 7 8 21 15 31 15 10 0 24 9 31 20 7 11 21
20 30 20 9 0 25 11 35 25 21 29 26 30 43 10z m-10974 -20 c4 -8 3 -31 0 -50
l-7 -35 -66 0 -65 0 14 23 c9 12 25 23 37 25 11 2 29 14 39 27 20 28 40 32 48
10z m2477 -7 c2 -7 2 -28 0 -45 -5 -32 -7 -33 -55 -33 l-50 0 44 44 c48 48 54
52 61 34z m775 -35 l-3 -38 -64 -3 c-57 -3 -63 -1 -51 12 7 9 18 16 24 17 6 0
27 11 46 24 47 32 52 31 48 -12z m857 -3 c0 -35 0 -35 -47 -38 -38 -2 -48 0
-48 12 0 9 8 16 18 16 10 0 25 11 32 25 20 37 45 28 45 -15z m-2895 -11 c0
-28 -2 -29 -50 -29 -27 0 -50 5 -50 10 0 6 9 10 20 10 10 0 27 11 37 24 23 30
43 23 43 -15z m8512 29 c3 -7 2 -23 0 -35 -4 -21 -10 -23 -59 -23 -39 0 -54 4
-51 13 3 6 14 13 25 15 12 2 29 12 39 23 19 22 40 25 46 7z m1408 -18 c15 -11
38 -24 51 -29 20 -8 13 -10 -32 -10 -57 -1 -69 7 -69 45 0 19 17 18 50 -6z
m-10960 -32 c0 -5 -11 -8 -25 -8 -20 0 -25 5 -25 25 0 26 0 26 25 8 13 -10 25
-21 25 -25z m576 27 c4 -8 12 -15 20 -15 8 0 14 -4 14 -10 0 -12 -77 -13 -84
-1 -10 16 5 41 25 41 11 0 22 -7 25 -15z m2636 -15 l33 -20 -42 0 c-36 0 -43
3 -43 20 0 25 11 25 52 0z m-2791 -6 c12 -14 11 -16 -5 -13 -11 2 -21 10 -24
17 -5 17 13 15 29 -4z m1997 -2 c3 -9 -2 -13 -14 -10 -9 1 -19 9 -22 16 -3 9
2 13 14 10 9 -1 19 -9 22 -16z m396 3 c18 -14 17 -15 -22 -15 -39 0 -51 8 -35
23 11 11 37 7 57 -8z m591 5 c46 6 91 3 95 -5 3 -6 -40 -10 -120 -11 -69 -1
-110 1 -92 3 17 2 32 9 32 15 0 7 13 8 38 4 20 -4 42 -7 47 -6z m6289 -5 c19
-14 19 -15 -7 -15 -17 0 -27 5 -27 15 0 19 9 19 34 0z m-9419 -5 c4 -6 -9 -10
-32 -9 -34 1 -35 2 -13 9 35 11 38 11 45 0z m210 0 c3 -5 -1 -10 -10 -10 -9 0
-13 5 -10 10 3 6 8 10 10 10 2 0 7 -4 10 -10z m2110 0 c3 -6 -4 -10 -17 -10
-18 0 -20 2 -8 10 19 12 18 12 25 0z m100 0 c3 -5 2 -10 -4 -10 -5 0 -13 5
-16 10 -3 6 -2 10 4 10 5 0 13 -4 16 -10z m1365 0 c0 -5 -4 -10 -10 -10 -5 0
-10 5 -10 10 0 6 5 10 10 10 6 0 10 -4 10 -10z m6015 0 c3 -5 1 -10 -4 -10 -6
0 -11 5 -11 10 0 6 2 10 4 10 3 0 8 -4 11 -10z m485 0 c0 -5 -7 -10 -16 -10
-8 0 -12 5 -9 10 3 6 10 10 16 10 5 0 9 -4 9 -10z m-7823 -6 c-3 -3 -12 -4
-19 -1 -8 3 -5 6 6 6 11 1 17 -2 13 -5z m180 0 c-3 -3 -12 -4 -19 -1 -8 3 -5
6 6 6 11 1 17 -2 13 -5z m8200 0 c-3 -3 -12 -4 -19 -1 -8 3 -5 6 6 6 11 1 17
-2 13 -5z"/>
</g>
</svg>
