<?xml version="1.0" standalone="no"?>
<!DOCTYPE svg PUBLIC "-//W3C//DTD SVG 20010904//EN"
 "http://www.w3.org/TR/2001/REC-SVG-20010904/DTD/svg10.dtd">
<svg version="1.0" xmlns="http://www.w3.org/2000/svg"
 width="1280.000000pt" height="640.000000pt" viewBox="0 0 1280.000000 640.000000"
 preserveAspectRatio="xMidYMid meet">
<metadata>
Created by potrace 1.15, written by Peter Selinger 2001-2017
</metadata>
<g transform="translate(0.000000,640.000000) scale(0.100000,-0.100000)"
fill="#000000" stroke="none">
<path d="M9259 5790 c-87 -22 -183 -63 -314 -133 -229 -124 -386 -258 -446
-382 -32 -65 -34 -76 -34 -170 0 -91 3 -106 31 -165 17 -36 51 -95 76 -131
l45 -67 -70 -88 c-98 -125 -191 -268 -239 -371 -36 -77 -42 -98 -46 -178 -7
-133 27 -229 117 -328 56 -62 104 -87 208 -108 52 -10 99 -22 104 -25 5 -3 9
-58 10 -122 1 -299 46 -410 195 -483 103 -51 233 -50 455 2 70 16 104 31 161
69 88 59 113 78 107 84 -2 2 -49 -7 -104 -20 -124 -30 -301 -42 -373 -24 -100
24 -187 107 -213 204 -6 23 -15 118 -19 211 -4 94 -11 178 -15 188 -11 25 -34
35 -121 52 -133 25 -189 64 -257 177 -63 106 -70 220 -20 346 50 127 116 230
287 449 l48 62 -66 104 c-85 134 -99 175 -94 280 2 61 9 95 27 132 31 64 190
224 251 253 161 77 387 83 528 14 77 -38 216 -171 253 -243 33 -66 66 -89 129
-89 23 0 142 12 263 28 200 24 252 27 527 26 341 0 371 -4 505 -70 119 -58
185 -125 185 -189 0 -74 -53 -137 -211 -251 -115 -83 -139 -106 -139 -138 0
-25 59 -84 162 -163 119 -90 228 -198 279 -277 79 -121 138 -336 125 -459 -6
-62 -32 -121 -65 -151 -34 -31 -154 -33 -290 -6 -64 13 -123 19 -139 15 -34
-8 -115 -60 -165 -104 -50 -45 -69 -84 -161 -333 -92 -251 -120 -316 -140
-324 -23 -9 -152 36 -176 61 -12 13 -28 52 -37 89 -17 76 -21 77 -94 41 -45
-23 -52 -24 -71 -11 -41 29 -110 100 -134 138 -13 21 -27 38 -30 38 -10 0
-194 -110 -194 -116 0 -35 122 -161 242 -248 43 -31 82 -64 87 -74 5 -9 31
-96 59 -192 62 -215 105 -317 288 -682 220 -434 403 -698 669 -963 l130 -129
-35 -8 c-69 -15 -462 -21 -580 -9 -247 25 -391 66 -747 212 -283 116 -514 194
-705 239 -76 18 -138 36 -138 40 0 4 18 15 39 25 54 24 108 83 183 200 177
275 266 514 353 950 58 284 102 656 79 654 -5 0 -52 -24 -104 -52 l-95 -52 -7
-75 c-33 -362 -103 -730 -190 -1000 -59 -182 -151 -375 -262 -545 l-54 -82
-303 -7 c-422 -10 -730 -32 -1249 -91 -571 -65 -823 -110 -1445 -255 -968
-226 -1334 -276 -1769 -240 -180 15 -383 60 -1062 235 -409 106 -1381 264
-1816 295 -285 21 -523 -29 -790 -167 -96 -49 -228 -138 -228 -153 0 -14 0
-14 112 36 303 137 459 167 767 145 462 -33 1327 -178 1837 -307 933 -236
1033 -254 1348 -234 374 24 724 86 1501 269 579 136 748 167 1235 225 829 100
1454 130 1718 82 283 -51 516 -125 862 -271 107 -45 238 -96 290 -113 221 -70
447 -102 726 -102 283 0 420 16 994 114 253 43 790 126 815 126 14 0 168 116
173 130 2 4 -5 7 -15 4 -10 -2 -198 -31 -418 -64 -220 -34 -487 -77 -593 -96
-246 -43 -249 -43 -197 2 34 30 37 37 24 44 -172 96 -494 473 -702 819 -77
129 -251 477 -322 646 -62 146 -119 316 -108 325 4 4 30 13 57 19 60 15 175
80 232 133 64 59 97 131 243 535 l23 62 151 3 c145 3 155 4 217 33 209 97 309
170 354 259 26 50 30 68 29 139 -1 158 -55 336 -142 467 -64 97 -143 177 -261
263 -194 143 -194 146 -19 265 115 79 155 117 185 177 22 46 26 65 21 108 -4
49 -8 55 -68 110 -79 73 -180 122 -307 150 -84 18 -130 21 -347 21 -206 0
-295 -4 -507 -27 -141 -16 -276 -27 -300 -25 -41 3 -45 6 -91 76 -87 131 -203
230 -322 274 -85 31 -243 35 -346 8z"/>
<path d="M965 5199 c-59 -13 -108 -37 -216 -101 -53 -32 -101 -58 -107 -58 -5
0 -39 14 -75 31 -69 32 -133 39 -195 20 -61 -18 -321 -166 -311 -176 2 -2 42
8 89 22 112 33 200 29 262 -12 35 -24 48 -27 90 -22 61 8 219 82 277 130 66
56 97 58 223 16 l58 -19 85 55 c47 30 85 61 85 69 0 17 -37 33 -109 46 -63 12
-101 11 -156 -1z"/>
<path d="M2099 4931 c-25 -10 -82 -38 -127 -62 l-82 -44 -33 19 c-147 86 -165
89 -261 42 -114 -56 -276 -181 -276 -213 0 -16 76 13 169 63 74 41 72 41 179
-28 l63 -41 42 21 c23 12 71 40 106 62 36 22 81 45 100 50 93 26 190 -1 285
-77 32 -27 64 -52 71 -57 14 -11 172 79 189 107 9 16 4 24 -30 56 -76 68 -216
122 -312 121 -20 -1 -58 -9 -83 -19z"/>
<path d="M297 4565 c-60 -22 -170 -83 -210 -116 -34 -28 -87 -113 -87 -139 0
-5 7 -10 16 -10 24 0 128 58 173 96 21 19 50 34 63 34 31 0 105 -45 256 -154
98 -71 125 -86 156 -86 20 0 95 22 166 50 147 57 289 100 330 100 33 0 151 59
199 98 38 33 35 55 -7 46 -109 -24 -206 -53 -335 -100 -83 -30 -158 -54 -169
-54 -28 0 -72 25 -183 104 -189 134 -275 165 -368 131z"/>
</g>
</svg>
